<svg width="120" height="40" viewBox="0 0 120 40" fill="none" xmlns="http://www.w3.org/2000/svg">
<path d="M21.36 28.2306C20.2933 28.2306 19.3067 28.0572 18.4 27.7106C17.5067 27.3506 16.7267 26.8506 16.06 26.2106C15.4067 25.5572 14.8933 24.7972 14.52 23.9306C14.1467 23.0639 13.96 22.1106 13.96 21.0706C13.96 20.0306 14.1467 19.0772 14.52 18.2106C14.8933 17.3439 15.4133 16.5906 16.08 15.9506C16.7467 15.2972 17.5267 14.7972 18.42 14.4506C19.3267 14.0906 20.3133 13.9106 21.38 13.9106C22.46 13.9106 23.4533 14.0972 24.36 14.4706C25.28 14.8306 26.06 15.3706 26.7 16.0906L25.4 17.3506C24.8667 16.7906 24.2667 16.3772 23.6 16.1106C22.9333 15.8306 22.22 15.6906 21.46 15.6906C20.6733 15.6906 19.94 15.8239 19.26 16.0906C18.5933 16.3572 18.0133 16.7306 17.52 17.2106C17.0267 17.6906 16.64 18.2639 16.36 18.9306C16.0933 19.5839 15.96 20.2972 15.96 21.0706C15.96 21.8439 16.0933 22.5639 16.36 23.2306C16.64 23.8839 17.0267 24.4506 17.52 24.9306C18.0133 25.4106 18.5933 25.7839 19.26 26.0506C19.94 26.3172 20.6733 26.4506 21.46 26.4506C22.22 26.4506 22.9333 26.3172 23.6 26.0506C24.2667 25.7706 24.8667 25.3439 25.4 24.7706L26.7 26.0306C26.06 26.7506 25.28 27.2972 24.36 27.6706C23.4533 28.0439 22.4533 28.2306 21.36 28.2306ZM29.2731 28.0706V17.4706H31.1931V28.0706H29.2731ZM30.2331 15.4306C29.8598 15.4306 29.5465 15.3106 29.2931 15.0706C29.0531 14.8306 28.9331 14.5372 28.9331 14.1906C28.9331 13.8306 29.0531 13.5306 29.2931 13.2906C29.5465 13.0506 29.8598 12.9306 30.2331 12.9306C30.6065 12.9306 30.9131 13.0506 31.1531 13.2906C31.4065 13.5172 31.5331 13.8039 31.5331 14.1506C31.5331 14.5106 31.4131 14.8172 31.1731 15.0706C30.9331 15.3106 30.6198 15.4306 30.2331 15.4306ZM40.5191 17.3706C41.3857 17.3706 42.1457 17.5372 42.7991 17.8706C43.4657 18.2039 43.9857 18.7106 44.3591 19.3906C44.7324 20.0706 44.9191 20.9306 44.9191 21.9706V28.0706H42.9991V22.1906C42.9991 21.1639 42.7457 20.3906 42.2391 19.8706C41.7457 19.3506 41.0457 19.0906 40.1391 19.0906C39.4591 19.0906 38.8657 19.2239 38.3591 19.4906C37.8524 19.7572 37.4591 20.1506 37.1791 20.6706C36.9124 21.1906 36.7791 21.8372 36.7791 22.6106V28.0706H34.8591V17.4706H36.6991V20.3306L36.3991 19.5706C36.7457 18.8772 37.2791 18.3372 37.9991 17.9506C38.7191 17.5639 39.5591 17.3706 40.5191 17.3706ZM53.1923 28.1906C52.059 28.1906 51.059 27.9572 50.1923 27.4906C49.339 27.0239 48.6723 26.3839 48.1923 25.5706C47.7257 24.7572 47.4923 23.8239 47.4923 22.7706C47.4923 21.7172 47.719 20.7839 48.1723 19.9706C48.639 19.1572 49.2723 18.5239 50.0723 18.0706C50.8857 17.6039 51.799 17.3706 52.8123 17.3706C53.839 17.3706 54.7457 17.5972 55.5323 18.0506C56.319 18.5039 56.9323 19.1439 57.3723 19.9706C57.8257 20.7839 58.0523 21.7372 58.0523 22.8306C58.0523 22.9106 58.0457 23.0039 58.0323 23.1106C58.0323 23.2172 58.0257 23.3172 58.0123 23.4106H48.9923V22.0306H57.0123L56.2323 22.5106C56.2457 21.8306 56.1057 21.2239 55.8123 20.6906C55.519 20.1572 55.1123 19.7439 54.5923 19.4506C54.0857 19.1439 53.4923 18.9906 52.8123 18.9906C52.1457 18.9906 51.5523 19.1439 51.0323 19.4506C50.5123 19.7439 50.1057 20.1639 49.8123 20.7106C49.519 21.2439 49.3723 21.8572 49.3723 22.5506V22.8706C49.3723 23.5772 49.5323 24.2106 49.8523 24.7706C50.1857 25.3172 50.6457 25.7439 51.2323 26.0506C51.819 26.3572 52.4923 26.5106 53.2523 26.5106C53.879 26.5106 54.4457 26.4039 54.9523 26.1906C55.4723 25.9772 55.9257 25.6572 56.3123 25.2306L57.3723 26.4706C56.8923 27.0306 56.2923 27.4572 55.5723 27.7506C54.8657 28.0439 54.0723 28.1906 53.1923 28.1906ZM73.9784 17.3706C74.8318 17.3706 75.5851 17.5372 76.2384 17.8706C76.8918 18.2039 77.3984 18.7106 77.7584 19.3906C78.1318 20.0706 78.3184 20.9306 78.3184 21.9706V28.0706H76.3984V22.1906C76.3984 21.1639 76.1584 20.3906 75.6784 19.8706C75.1984 19.3506 74.5251 19.0906 73.6584 19.0906C73.0184 19.0906 72.4584 19.2239 71.9784 19.4906C71.4984 19.7572 71.1251 20.1506 70.8584 20.6706C70.6051 21.1906 70.4784 21.8372 70.4784 22.6106V28.0706H68.5584V22.1906C68.5584 21.1639 68.3184 20.3906 67.8384 19.8706C67.3718 19.3506 66.6984 19.0906 65.8184 19.0906C65.1918 19.0906 64.6384 19.2239 64.1584 19.4906C63.6784 19.7572 63.3051 20.1506 63.0384 20.6706C62.7718 21.1906 62.6384 21.8372 62.6384 22.6106V28.0706H60.7184V17.4706H62.5584V20.2906L62.2584 19.5706C62.5918 18.8772 63.1051 18.3372 63.7984 17.9506C64.4918 17.5639 65.2984 17.3706 66.2184 17.3706C67.2318 17.3706 68.1051 17.6239 68.8384 18.1306C69.5718 18.6239 70.0518 19.3772 70.2784 20.3906L69.4984 20.0706C69.8184 19.2572 70.3784 18.6039 71.1784 18.1106C71.9784 17.6172 72.9118 17.3706 73.9784 17.3706ZM88.4313 28.0706V25.8306L88.3313 25.4106V21.5906C88.3313 20.7772 88.0913 20.1506 87.6113 19.7106C87.1446 19.2572 86.4379 19.0306 85.4913 19.0306C84.8646 19.0306 84.2513 19.1372 83.6513 19.3506C83.0513 19.5506 82.5446 19.8239 82.1313 20.1706L81.3313 18.7306C81.8779 18.2906 82.5313 17.9572 83.2913 17.7306C84.0646 17.4906 84.8713 17.3706 85.7113 17.3706C87.1646 17.3706 88.2846 17.7239 89.0713 18.4306C89.8579 19.1372 90.2513 20.2172 90.2513 21.6706V28.0706H88.4313ZM84.9513 28.1906C84.1646 28.1906 83.4713 28.0572 82.8713 27.7906C82.2846 27.5239 81.8313 27.1572 81.5113 26.6906C81.1913 26.2106 81.0313 25.6706 81.0313 25.0706C81.0313 24.4972 81.1646 23.9772 81.4313 23.5106C81.7113 23.0439 82.1579 22.6706 82.7713 22.3906C83.3979 22.1106 84.2379 21.9706 85.2913 21.9706H88.6513V23.3506H85.3713C84.4113 23.3506 83.7646 23.5106 83.4313 23.8306C83.0979 24.1506 82.9313 24.5372 82.9313 24.9906C82.9313 25.5106 83.1379 25.9306 83.5513 26.2506C83.9646 26.5572 84.5379 26.7106 85.2713 26.7106C85.9913 26.7106 86.6179 26.5506 87.1513 26.2306C87.6979 25.9106 88.0913 25.4439 88.3313 24.8306L88.7113 26.1506C88.4579 26.7772 88.0113 27.2772 87.3713 27.6506C86.7313 28.0106 85.9246 28.1906 84.9513 28.1906ZM92.2644 28.0706L96.8244 22.1506L96.8044 23.1306L92.4644 17.4706H94.6044L97.9244 21.8306H97.1044L100.424 17.4706H102.524L98.1244 23.1706L98.1444 22.1506L102.744 28.0706H100.564L97.0644 23.4306L97.8444 23.5506L94.4044 28.0706H92.2644Z" fill="white"/>
<path fill-rule="evenodd" clip-rule="evenodd" d="M28.4434 4.26262C28.4434 4.92096 27.9097 5.45466 27.2514 5.45466H3.97351C3.0957 5.45466 2.3841 6.16626 2.3841 7.04406V20.1567C2.3841 20.815 1.85041 21.3487 1.19206 21.3487C0.533706 21.3487 7.43517e-06 21.8824 7.1165e-06 22.5408L0 37.2427V5.45466V4.65996C0 3.78216 0.7116 3.07056 1.5894 3.07056H2.3841H114.437H115.232C116.11 3.07056 116.821 3.78216 116.821 4.65996V5.45466V37.2427V38.0374C116.821 38.9153 116.11 39.6269 115.232 39.6269H114.437L89.5698 39.6269C88.9115 39.6269 88.3778 39.0932 88.3778 38.4348C88.3778 37.7765 88.9115 37.2427 89.5698 37.2427H112.848C113.726 37.2427 114.437 36.5312 114.437 35.6533V22.5407C114.437 21.8824 114.971 21.3487 115.629 21.3487C116.287 21.3487 116.821 20.815 116.821 20.1567V4.65997C116.821 3.78217 116.11 3.07057 115.232 3.07057H29.6355C28.9771 3.07057 28.4434 3.60427 28.4434 4.26262Z" fill="#EF4234"/>
<ellipse cx="114.04" cy="6.78778" rx="5.96026" ry="5.96027" fill="#EF4234"/>
</svg>
